<svg version="1.1" id="Layer_1" xmlns="http://www.w3.org/2000/svg" xmlns:xlink="http://www.w3.org/1999/xlink" x="0px" y="0px"
	 width="100%" viewBox="0 0 496 496" enable-background="new 0 0 496 496" xml:space="preserve">
<path fill="#000000" opacity="1.000000" stroke="none" 
	d="
M252.613556,144.796387 
	C250.897873,152.727615 251.474411,160.452179 250.510361,168.054245 
	C249.907837,172.805496 252.328354,174.857773 257.027588,173.999222 
	C260.144073,173.429825 262.111176,173.802689 263.847748,177.002609 
	C265.145172,179.393280 267.467010,181.582230 270.978699,181.652725 
	C274.085327,181.715088 275.461914,184.084717 274.495544,186.782715 
	C273.291901,190.143127 273.799896,192.558731 276.216400,195.139282 
	C278.079376,197.128738 277.964630,199.455368 274.917725,200.519287 
	C273.896179,200.876022 272.920929,201.296768 272.585541,202.192734 
	C268.882965,212.084320 260.785583,208.512772 253.769730,208.529953 
	C251.286118,208.536041 249.114929,206.871292 246.444244,207.740936 
	C245.020493,208.204544 235.728958,198.245331 235.634277,196.595154 
	C235.332733,191.338135 233.091751,188.996033 228.564804,189.206680 
	C224.555969,189.393219 222.698883,191.893967 222.563843,197.210480 
	C222.553253,197.627136 222.242294,198.036194 222.025528,198.558090 
	C220.093338,195.185059 220.131088,191.303085 222.413849,189.161377 
	C225.181473,186.564804 228.543335,186.095978 232.165802,187.288254 
	C236.260254,188.635880 238.546158,192.649200 242.795288,194.069046 
	C245.234146,194.883942 244.213333,198.398941 243.615005,201.247925 
	C247.661514,200.874863 250.464371,201.746140 251.635742,205.368652 
	C251.781509,205.819458 252.969727,206.438385 253.186264,206.285828 
	C256.825134,203.722153 261.938141,208.154434 265.266083,203.639893 
	C265.985229,202.664307 267.948212,202.605576 269.651794,202.016037 
	C269.863708,199.239243 268.808533,196.078201 272.093231,193.765991 
	C273.365662,192.870270 272.154999,189.913773 270.201111,189.498459 
	C266.856506,188.787506 266.036011,186.835907 265.917450,183.828064 
	C265.822845,181.427185 264.053223,180.391815 261.813721,180.442627 
	C258.762329,180.511841 256.212982,180.454727 254.512543,176.960968 
	C253.823288,175.544815 250.618301,175.504684 248.752029,174.483810 
	C240.283325,169.851440 231.909393,165.045822 223.440948,160.412994 
	C221.392868,159.292542 220.548294,157.887817 220.915817,155.589859 
	C222.381744,146.424118 222.557053,137.053146 225.187866,128.060745 
	C227.937912,127.093323 229.628418,129.091400 231.616409,130.107361 
	C237.692444,133.212463 243.726685,136.400696 249.834274,139.441971 
	C251.986755,140.513809 253.570999,141.684402 252.613556,144.796387 
z"/>
<path fill="#000000" opacity="1.000000" stroke="none" 
	d="
M164.076019,229.901474 
	C163.197571,235.751907 160.463379,239.582123 154.790665,240.684479 
	C146.841690,242.229187 144.673843,240.429535 144.671753,232.456345 
	C144.670929,229.293442 144.868027,226.115646 144.626694,222.971359 
	C144.311005,218.858536 146.309326,217.809143 149.998428,217.905884 
	C158.727676,218.134766 162.347488,221.010788 164.076019,229.901474 
M157.312302,226.134537 
	C155.850983,224.442596 154.113220,222.825211 151.802155,223.787384 
	C149.502014,224.745026 150.412720,227.216095 150.210068,229.101074 
	C150.139801,229.754730 150.143951,230.429657 150.218597,231.082932 
	C150.395508,232.631454 149.740768,234.778137 151.990097,235.160080 
	C153.809723,235.469070 155.679749,234.699188 156.822723,233.173065 
	C158.249786,231.267654 159.107925,229.114899 157.312302,226.134537 
z"/>
<path fill="#000000" opacity="1.000000" stroke="none" 
	d="
M344.319336,234.728577 
	C342.625458,236.348831 344.094269,238.498413 342.707550,240.250488 
	C339.614899,240.987869 337.776917,240.128891 337.845123,236.395462 
	C337.933289,231.568771 337.906708,226.739105 337.865570,221.911255 
	C337.842499,219.201279 339.131531,217.967682 341.802612,217.928467 
	C344.495148,217.888931 347.175232,218.114807 349.645264,219.137421 
	C352.913940,220.490707 354.318451,223.238083 354.335571,226.691849 
	C354.348175,229.232330 351.342804,230.890945 352.099274,233.596970 
	C352.708679,235.777039 355.188538,237.078781 355.384033,239.852417 
	C351.882233,241.009247 349.165680,240.727020 347.371674,237.204010 
	C346.788239,236.058334 346.194885,234.749695 344.319336,234.728577 
M348.051117,225.072220 
	C346.735901,223.315659 345.190887,222.639313 343.762238,224.757446 
	C343.014984,225.865326 343.041107,227.567307 344.500458,228.159210 
	C346.658478,229.034470 347.855957,227.784012 348.051117,225.072220 
z"/>
<path fill="#000000" opacity="1.000000" stroke="none" 
	d="
M194.696976,232.311646 
	C193.100052,232.440231 191.788300,232.634048 191.937302,234.208054 
	C192.051041,235.409561 193.224518,235.599991 194.247986,235.586929 
	C196.074097,235.563660 197.898758,235.444809 199.724854,235.397980 
	C201.495590,235.352585 202.609879,236.082977 202.574432,238.008636 
	C202.543259,239.701523 201.484741,240.289993 199.965820,240.344620 
	C199.633743,240.356567 199.301880,240.374557 198.969925,240.389740 
	C183.148239,241.113495 185.784882,241.884232 185.699921,228.183456 
	C185.632614,217.330429 186.529602,216.632233 197.798019,217.964859 
	C199.806351,218.202393 201.424377,218.613495 201.305191,221.130508 
	C201.187622,223.613281 199.432404,223.324020 197.739197,223.430740 
	C195.732620,223.557205 193.385406,222.506042 191.847336,224.784607 
	C192.219620,227.061203 194.003128,226.463242 195.363770,226.654617 
	C197.327576,226.930832 200.142136,225.889130 200.185989,229.334991 
	C200.233887,233.098541 197.195908,231.999908 194.696976,232.311646 
z"/>
<path fill="#000000" opacity="1.000000" stroke="none" 
	d="
M264.069580,235.512085 
	C266.619415,233.570374 269.549835,236.744659 271.879120,234.216003 
	C271.871307,231.778427 269.447968,231.991547 268.095398,231.114792 
	C265.566742,229.475693 263.607483,227.495682 263.922699,224.318024 
	C264.179108,221.733017 265.465851,219.668182 268.140076,218.679657 
	C271.340637,217.496552 274.347565,217.977661 277.206909,219.575775 
	C278.413025,220.249893 278.375275,221.478104 277.846283,222.648865 
	C277.288879,223.882523 276.336243,224.359573 275.018036,223.984314 
	C273.440552,223.535233 271.852753,222.813599 270.222076,224.490356 
	C271.092590,226.736404 273.557495,226.877274 275.192322,228.030853 
	C278.026459,230.030701 278.780884,232.739502 278.140167,235.879990 
	C277.480225,239.114655 274.973846,240.443176 271.979462,240.765854 
	C268.796692,241.108871 265.648376,240.877960 263.449982,238.061737 
	C262.871368,237.320511 263.428589,236.483398 264.069580,235.512085 
z"/>
<path fill="#000000" opacity="1.000000" stroke="none" 
	d="
M304.074951,240.254791 
	C301.665771,240.465698 300.546753,239.755905 300.584473,237.531982 
	C300.674347,232.240417 300.710175,226.946838 300.673248,221.654724 
	C300.655823,219.158829 301.792542,217.990662 304.236633,217.981430 
	C307.389191,217.969513 310.595001,217.915604 313.337616,219.747162 
	C317.483765,222.516037 317.696503,230.612717 313.112030,232.349594 
	C308.823730,233.974274 306.355835,236.478485 304.074951,240.254791 
M309.544495,227.918350 
	C310.945557,226.246460 311.205322,224.673172 308.875275,223.682556 
	C307.848572,223.246063 306.844055,223.870193 306.607483,224.918747 
	C306.183990,226.795914 306.075378,228.678818 309.544495,227.918350 
z"/>
<path fill="#000000" opacity="1.000000" stroke="none" 
	d="
M230.764343,237.960449 
	C228.026901,231.546234 225.428970,225.468719 222.740463,219.179321 
	C225.586624,217.444489 227.645538,217.505783 229.367416,220.119415 
	C230.716690,222.167435 230.795639,224.887314 232.936447,226.838089 
	C234.911316,225.192642 235.034622,222.692810 236.047409,220.706268 
	C237.222046,218.402328 238.952316,217.315689 241.287231,218.397644 
	C243.901443,219.609009 242.140488,221.505814 241.476273,223.038147 
	C238.917908,228.940094 236.277145,234.806290 233.777100,240.438004 
	C231.588593,240.634384 231.524216,239.171921 230.764343,237.960449 
z"/>
<path fill="#000000" opacity="1.000000" stroke="none" 
	d="
M206.283966,270.554565 
	C200.301422,270.587158 199.780701,269.737000 199.969025,263.871277 
	C200.098679,259.832367 202.416855,259.313721 205.491989,259.529602 
	C207.628952,259.679626 208.608521,261.413940 209.123611,263.114532 
	C210.003006,266.017975 209.476135,268.670441 206.283966,270.554565 
z"/>
<path fill="#000000" opacity="1.000000" stroke="none" 
	d="
M255.204834,270.293243 
	C252.428680,271.214478 249.424805,271.667328 248.041840,269.451019 
	C246.580368,267.108917 247.126251,263.763031 248.168762,261.247894 
	C249.437378,258.187286 252.509964,260.207916 254.908051,259.422760 
	C255.124222,263.337769 255.310104,266.703979 255.204834,270.293243 
z"/>
<path fill="#000000" opacity="1.000000" stroke="none" 
	d="
M263.331299,275.595825 
	C268.497070,275.289856 266.184021,278.852051 266.240936,280.726135 
	C266.293152,282.444641 263.871674,284.405487 268.043976,285.243896 
	C264.940033,287.366821 262.234283,287.657440 260.351685,286.094666 
	C257.768402,283.950195 259.059692,280.569305 259.217407,277.688477 
	C259.350708,275.253326 261.333130,275.639252 263.331299,275.595825 
z"/>
<path fill="#000000" opacity="1.000000" stroke="none" 
	d="
M312.955750,259.719482 
	C314.977142,259.751434 316.688263,259.162628 318.292450,260.665649 
	C317.421448,263.518646 316.930267,266.550507 318.475800,269.711670 
	C315.765167,271.253143 312.234344,271.858551 311.256042,269.565918 
	C310.029083,266.690430 309.087646,262.623108 312.955750,259.719482 
z"/>
<path fill="#000000" opacity="1.000000" stroke="none" 
	d="
M283.002075,259.691528 
	C287.394470,259.965820 288.924866,262.217987 288.362854,266.008606 
	C287.966522,268.681854 286.860901,270.585419 283.640503,270.593811 
	C280.433533,270.602173 277.988556,269.659760 277.612183,266.221436 
	C277.223114,262.667236 278.577881,260.074371 283.002075,259.691528 
M281.377472,264.741150 
	C281.250671,266.758270 281.986786,267.938446 284.174255,267.278503 
	C285.181305,266.974670 285.742218,265.975189 285.376495,264.961548 
	C284.622314,262.871582 283.238892,262.861969 281.377472,264.741150 
z"/>
<path fill="#000000" opacity="1.000000" stroke="none" 
	d="
M223.713013,263.105042 
	C224.558594,265.454285 222.648438,267.881897 225.204376,269.689575 
	C222.171295,271.338013 219.213547,271.699097 217.563126,269.477081 
	C215.793625,267.094727 216.214142,263.639435 217.365738,260.934998 
	C218.279892,258.788177 220.845490,259.553040 222.723328,259.767731 
	C224.825211,260.008057 224.096191,261.536987 223.713013,263.105042 
z"/>
<path fill="#000000" opacity="1.000000" stroke="none" 
	d="
M167.129791,268.251923 
	C164.207306,273.257904 164.154465,266.453186 162.279587,267.417023 
	C160.350784,267.130859 160.625320,269.907593 158.849533,269.797821 
	C157.200226,266.194977 157.152008,264.525299 158.566727,260.111145 
	C161.054520,259.472961 159.982254,262.977814 161.799576,262.965546 
	C164.409805,263.461487 163.671509,259.856659 166.219803,259.879700 
	C168.367767,262.212738 167.572433,265.116547 167.129791,268.251923 
z"/>
<path fill="#000000" opacity="1.000000" stroke="none" 
	d="
M182.162842,261.815948 
	C180.378830,264.591522 181.108124,267.055786 182.295898,269.714569 
	C179.700317,271.136841 176.624374,271.736847 175.267365,269.216248 
	C173.870880,266.622375 173.521973,262.656281 175.771240,260.379608 
	C177.034927,259.100525 180.668976,257.894531 182.162842,261.815948 
z"/>
<path fill="#000000" opacity="1.000000" stroke="none" 
	d="
M332.946655,269.637939 
	C330.620087,270.102142 328.447754,268.319275 326.365356,270.445404 
	C324.142853,266.891907 325.556580,263.677734 325.812042,260.535858 
	C331.364441,258.973877 332.441650,259.762299 332.444977,265.031036 
	C332.445892,266.478088 332.881439,267.924896 332.946655,269.637939 
z"/>
<path fill="#000000" opacity="1.000000" stroke="none" 
	d="
M225.455475,285.101990 
	C223.334946,287.400177 220.735474,283.408508 218.790131,286.504456 
	C216.289627,282.820648 217.222656,279.504730 218.034180,276.080627 
	C220.245331,276.080627 222.328751,276.080627 225.048004,276.080627 
	C222.789169,279.281616 223.147507,282.150940 225.455475,285.101990 
z"/>
<path fill="#000000" opacity="1.000000" stroke="none" 
	d="
M274.780518,284.581848 
	C275.267303,283.279877 276.030365,282.560944 275.666351,281.127747 
	C274.391449,276.108643 275.213715,275.403442 281.298218,276.264557 
	C279.379120,279.395905 284.467560,283.110992 280.221863,285.898438 
	C278.580811,286.975861 276.122162,287.580536 274.780518,284.581848 
z"/>
<path fill="#000000" opacity="1.000000" stroke="none" 
	d="
M298.529846,268.880371 
	C298.141571,269.811798 297.430786,270.544281 297.002289,270.127075 
	C294.749237,267.933533 295.260376,265.140656 295.628876,262.404083 
	C295.941681,260.081177 297.530945,259.564026 299.514038,259.546448 
	C301.640778,259.527588 303.050659,260.706757 303.422668,262.621887 
	C303.959930,265.387878 302.126495,266.788147 299.798981,267.715515 
	C299.368958,267.886841 299.036407,268.302795 298.529846,268.880371 
z"/>
<path fill="#000000" opacity="1.000000" stroke="none" 
	d="
M350.538025,264.978394 
	C349.328522,259.913269 350.393158,259.090454 356.426697,260.570374 
	C353.348480,263.429504 359.181763,267.499237 354.773651,270.063080 
	C353.292297,270.924683 351.254974,270.861237 350.068939,269.795258 
	C348.317383,267.558136 354.292053,267.521545 350.538025,264.978394 
z"/>
<path fill="#000000" opacity="1.000000" stroke="none" 
	d="
M237.384140,261.827576 
	C238.127380,260.624725 238.630661,259.499603 240.449356,260.074585 
	C240.898895,264.210724 237.738449,267.111328 236.927658,271.553192 
	C233.375595,267.881348 232.718018,264.022614 231.482010,260.553314 
	C234.613678,258.664276 234.661621,263.738037 237.384140,261.827576 
z"/>
<path fill="#000000" opacity="1.000000" stroke="none" 
	d="
M262.976807,267.674500 
	C263.086090,264.727997 262.389099,262.043396 264.085449,259.673584 
	C267.295868,260.900665 266.073914,263.471893 266.364166,265.355713 
	C266.797668,268.169312 270.234955,267.083923 271.005219,269.272461 
	C267.401733,271.895874 265.327484,271.587921 262.976807,267.674500 
z"/>
<path fill="#000000" opacity="1.000000" stroke="none" 
	d="
M244.649323,276.139832 
	C246.964798,275.465363 249.027542,274.765045 251.335480,276.278198 
	C250.339142,279.476379 249.363358,282.608582 248.045761,286.837921 
	C246.157425,282.803528 246.427444,279.124390 244.649323,276.139832 
z"/>
<path fill="#000000" opacity="1.000000" stroke="none" 
	d="
M146.175217,259.628235 
	C147.815002,259.774353 149.255829,259.281036 150.379227,260.983978 
	C148.347229,263.406036 148.399078,266.756897 147.444443,270.975830 
	C144.530563,267.158966 145.856339,263.112305 143.581299,260.460846 
	C144.316086,260.186554 145.050873,259.912262 146.175217,259.628235 
z"/>
<path fill="#000000" opacity="1.000000" stroke="none" 
	d="
M233.093735,281.985168 
	C233.394928,279.686676 233.219223,277.670166 234.325226,275.926666 
	C237.309402,277.678894 237.550232,281.612762 234.964539,285.938812 
	C233.087173,285.407318 233.406326,283.722717 233.093735,281.985168 
z"/>
</svg>